<svg width="32" height="32" viewBox="0 0 32 32" fill="none" xmlns="http://www.w3.org/2000/svg">
<rect x="1" y="1" width="30" height="30" rx="4" fill="#8081EC"/>
<path d="M17.7778 13.3333C18.2687 13.3333 18.6667 12.9354 18.6667 12.4444C18.6667 11.9535 18.2687 11.5556 17.7778 11.5556C17.2869 11.5556 16.8889 11.9535 16.8889 12.4444C16.8889 12.9354 17.2869 13.3333 17.7778 13.3333Z" fill="white"/>
<path fill-rule="evenodd" clip-rule="evenodd" d="M13.3333 18.6667V20.4444C13.3333 22.4081 14.9252 24 16.8889 24H24V15.1111C24 11.1838 20.8162 8 16.8889 8H13.3333C10.3878 8 8 10.3878 8 13.3333V15.1111H9.77778C9.77778 17.0748 11.3697 18.6667 13.3333 18.6667ZM13.3333 9.77778C11.3697 9.77778 9.77778 11.3697 9.77778 13.3333H13.3333V9.77778ZM11.5556 15.1111H13.3333V16.8889C12.3515 16.8889 11.5556 16.093 11.5556 15.1111ZM15.1111 9.77778H16.8889C19.8344 9.77778 22.2222 12.1656 22.2222 15.1111V15.2713L21.3506 15.4456C19.2732 15.8611 17.7778 17.6852 17.7778 19.8037V22.2222H16.8889C15.907 22.2222 15.1111 21.4263 15.1111 20.4444V9.77778ZM21.6992 17.1889L22.2222 17.0843V22.2222H19.5556V19.8037C19.5556 18.5326 20.4528 17.4382 21.6992 17.1889Z" fill="white"/>
</svg>
