<svg width="96" height="16" viewBox="0 0 96 16" fill="none" xmlns="http://www.w3.org/2000/svg">
<path d="M90 16C93.3409 16 96 13.3764 96 10C96 6.60076 93.3409 4 90 4C86.6818 4 84 6.60076 84 10C84 13.3764 86.6818 16 90 16ZM90 13.6046C88 13.6046 86.4545 12.076 86.4545 10C86.4545 7.92395 88 6.39544 90 6.39544C92 6.39544 93.5455 7.92395 93.5455 10C93.5455 12.076 92 13.6046 90 13.6046Z" fill="#181B34"/>
<path d="M9.77778 5.33333C10.2687 5.33333 10.6667 4.93536 10.6667 4.44444C10.6667 3.95352 10.2687 3.55556 9.77778 3.55556C9.28686 3.55556 8.88889 3.95352 8.88889 4.44444C8.88889 4.93536 9.28686 5.33333 9.77778 5.33333Z" fill="#181B34"/>
<path fill-rule="evenodd" clip-rule="evenodd" d="M5.33333 10.6667V12.4444C5.33333 14.4081 6.92521 16 8.88889 16H16V7.11111C16 3.18375 12.8162 0 8.88889 0H5.33333C2.38781 0 0 2.38781 0 5.33333V7.11111H1.77778C1.77778 9.07479 3.36965 10.6667 5.33333 10.6667ZM5.33333 1.77778C3.36965 1.77778 1.77778 3.36965 1.77778 5.33333H5.33333V1.77778ZM3.55556 7.11111H5.33333V8.88889C4.35149 8.88889 3.55556 8.09295 3.55556 7.11111ZM7.11111 1.77778H8.88889C11.8344 1.77778 14.2222 4.16559 14.2222 7.11111V7.27129L13.3506 7.44561C11.2732 7.8611 9.77778 9.68516 9.77778 11.8037V14.2222H8.88889C7.90705 14.2222 7.11111 13.4263 7.11111 12.4444V1.77778ZM13.6992 9.18887L14.2222 9.08427V14.2222H11.5556V11.8037C11.5556 10.5326 12.4528 9.43816 13.6992 9.18887Z" fill="#181B34"/>
<path d="M65.5639 4V5.91635C64.7068 4.73004 63.3759 4 61.6165 4C58.5489 4 56 6.60076 56 10C56 13.3764 58.5489 16 61.6165 16C63.3759 16 64.7068 15.27 65.5639 14.0608V16H68V4H65.5639ZM62 13.6502C59.9699 13.6502 58.4361 12.1217 58.4361 10C58.4361 7.87833 59.9699 6.34981 62 6.34981C64.0301 6.34981 65.5639 7.87833 65.5639 10C65.5639 12.1217 64.0301 13.6502 62 13.6502Z" fill="#181B34"/>
<path d="M79.5639 0V5.91635C78.7068 4.73004 77.3759 4 75.6165 4C72.5489 4 70 6.60076 70 10C70 13.3764 72.5489 16 75.6165 16C77.3759 16 78.7068 15.27 79.5639 14.0608V16H82V0H79.5639ZM76 13.6502C73.9699 13.6502 72.4361 12.1217 72.4361 10C72.4361 7.87833 73.9699 6.34981 76 6.34981C78.0301 6.34981 79.5639 7.87833 79.5639 10C79.5639 12.1217 78.0301 13.6502 76 13.6502Z" fill="#181B34"/>
<path d="M49.9387 16C52.1432 16 54.0552 14.8365 55 13.0342L52.908 11.8251C52.3681 12.8745 51.2658 13.5817 49.9162 13.5817C47.9366 13.5817 46.4294 12.0532 46.4294 10C46.4294 7.94677 47.9366 6.41825 49.9162 6.41825C51.2658 6.41825 52.3681 7.10266 52.863 8.1749L54.955 6.94297C54.0552 5.1635 52.1432 4 49.9387 4C46.5419 4 44 6.60076 44 10C44 13.3764 46.5419 16 49.9387 16Z" fill="#181B34"/>
<path d="M37 16C40.3409 16 43 13.3764 43 10C43 6.60076 40.3409 4 37 4C33.6818 4 31 6.60076 31 10C31 13.3764 33.6818 16 37 16ZM37 13.6046C35 13.6046 33.4545 12.076 33.4545 10C33.4545 7.92395 35 6.39544 37 6.39544C39 6.39544 40.5455 7.92395 40.5455 10C40.5455 12.076 39 13.6046 37 13.6046Z" fill="#181B34"/>
<path d="M28.2505 4L25.0117 13.12L21.7495 4H19L23.5437 16H26.4563L31 4H28.2505Z" fill="#181B34"/>
</svg>
