<svg width="24" height="24" viewBox="0 0 24 24" fill="none" xmlns="http://www.w3.org/2000/svg">
<path d="M14.6667 8C15.403 8 16 7.40305 16 6.66667C16 5.93029 15.403 5.33333 14.6667 5.33333C13.9303 5.33333 13.3333 5.93029 13.3333 6.66667C13.3333 7.40305 13.9303 8 14.6667 8Z" fill="#181B34"/>
<path fill-rule="evenodd" clip-rule="evenodd" d="M8 16V18.6667C8 21.6122 10.3878 24 13.3333 24H24V10.6667C24 4.77563 19.2244 0 13.3333 0H8C3.58172 0 0 3.58172 0 8V10.6667H2.66667C2.66667 13.6122 5.05448 16 8 16ZM8 2.66667C5.05448 2.66667 2.66667 5.05448 2.66667 8H8V2.66667ZM5.33333 10.6667H8V13.3333C6.52724 13.3333 5.33333 12.1394 5.33333 10.6667ZM10.6667 2.66667H13.3333C17.7516 2.66667 21.3333 6.24839 21.3333 10.6667V10.9069L20.0259 11.1684C16.9097 11.7916 14.6667 14.5277 14.6667 17.7056V21.3333H13.3333C11.8606 21.3333 10.6667 20.1394 10.6667 18.6667V2.66667ZM20.5489 13.7833L21.3333 13.6264V21.3333H17.3333V17.7056C17.3333 15.7989 18.6792 14.1572 20.5489 13.7833Z" fill="#181B34"/>
</svg>
