<svg width="64" height="64" viewBox="0 0 64 64" fill="none" xmlns="http://www.w3.org/2000/svg">
<rect width="64" height="64" rx="16" fill="#ECF8FF"/>
<path fill-rule="evenodd" clip-rule="evenodd" d="M25.346 26.8276C25.546 26.3277 26.03 26 26.5684 26C27.067 26 27.5229 26.2817 27.7459 26.7277L28.1056 27.4472C28.3526 27.9412 28.9533 28.1414 29.4472 27.8944C29.9412 27.6474 30.1414 27.0468 29.8944 26.5528L29.5347 25.8333C28.9729 24.7097 27.8245 24 26.5684 24C25.2122 24 23.9927 24.8256 23.4891 26.0848L20.08 34.6075C20.0524 34.6721 20.0314 34.7402 20.0179 34.8109C19.9666 35.0759 20.0262 35.3452 20.172 35.5608C20.3181 35.7761 20.546 35.9315 20.811 35.9822C20.8816 35.9958 20.9526 36.0016 21.0227 36H21.1C21.5633 38.2822 23.5811 40 26 40C28.5981 40 30.7333 38.0184 30.9769 35.4842C31.593 35.0674 32.407 35.0674 33.0232 35.4842C33.2667 38.0184 35.402 40 38 40C40.419 40 42.4367 38.2822 42.9 36H42.9774C43.0475 36.0016 43.1183 35.9958 43.1889 35.9822C43.4541 35.9315 43.6821 35.7761 43.8282 35.5606C43.9739 35.345 44.0335 35.0758 43.9822 34.8109C43.9686 34.7402 43.9476 34.6721 43.9201 34.6075L40.511 26.0848C40.0073 24.8256 38.7878 24 37.4317 24C36.1755 24 35.0271 24.7097 34.4653 25.8333L34.1056 26.5528C33.8586 27.0468 34.0588 27.6474 34.5528 27.8944C35.0468 28.1414 35.6475 27.9412 35.8944 27.4472L36.2542 26.7277C36.4772 26.2817 36.933 26 37.4317 26C37.97 26 38.4541 26.3277 38.654 26.8276L40.1091 30.4653C39.4683 30.1667 38.7536 30 38 30C35.8033 30 33.9375 31.4166 33.2662 33.3861C32.448 33.1001 31.552 33.1001 30.7338 33.3861C30.0625 31.4166 28.1967 30 26 30C25.2464 30 24.5318 30.1667 23.8909 30.4653L25.346 26.8276ZM41 34.9983C40.9991 33.3422 39.6563 32 38 32C36.3432 32 35 33.3431 35 35C35 36.6569 36.3432 38 38 38C39.6569 38 41 36.6551 41 34.9983C41 34.9989 41 34.9977 41 34.9983ZM29 35C29 36.6569 27.6569 38 26 38C24.3432 38 23 36.6569 23 35C23 33.3431 24.3432 32 26 32C27.6569 32 29 33.3431 29 35Z" fill="#1BA5ED"/>
</svg>
