<svg width="64" height="64" viewBox="0 0 64 64" fill="none" xmlns="http://www.w3.org/2000/svg">
<rect width="64" height="64" rx="16" fill="#F8F5FE"/>
<path fill-rule="evenodd" clip-rule="evenodd" d="M28 25.357V24.8654C28 22.7305 29.7909 20.9998 32 20.9998C34.2091 20.9998 36 22.7305 36 24.8654V25.357C36.2724 25.3843 36.5445 25.4143 36.8164 25.4472L37.3196 25.508C38.945 25.7043 40.2921 26.8197 40.7421 28.3419C41.5766 31.1646 42 34.0859 42 37.0216V37.9426C42 40.3939 40.078 42.4464 37.554 42.6903L36.6921 42.7736C33.5718 43.0751 30.4282 43.0751 27.3079 42.7736L26.446 42.6903C23.922 42.4464 22 40.3939 22 37.9426V37.0216C22 34.0859 22.4234 31.1646 23.2579 28.3419C23.7079 26.8197 25.055 25.7043 26.6804 25.508L27.1836 25.4472C27.4555 25.4143 27.7276 25.3843 28 25.357ZM30 24.8654C30 23.7979 30.8954 22.9326 32 22.9326C33.1046 22.9326 34 23.7979 34 24.8654V25.2072C32.6676 25.1408 31.3324 25.1408 30 25.2072V24.8654ZM28 27.3008V28.731C28 29.2647 28.4477 29.6974 29 29.6974C29.5523 29.6974 30 29.2647 30 28.731V27.1427C31.3323 27.0727 32.6677 27.0727 34 27.1427V28.731C34 29.2647 34.4477 29.6974 35 29.6974C35.5523 29.6974 36 29.2647 36 28.731V27.3008C36.1896 27.3208 36.379 27.3422 36.5683 27.3651L37.0715 27.4259C37.9015 27.5261 38.5893 28.0956 38.819 28.8728C39.6025 31.5229 40 34.2655 40 37.0216V37.9426C40 39.4009 38.8566 40.622 37.355 40.7671L36.4931 40.8504C33.5052 41.1391 30.4948 41.1391 27.5069 40.8504L26.645 40.7671C25.1434 40.622 24 39.4009 24 37.9426V37.0216C24 34.2655 24.3975 31.5229 25.1809 28.8728C25.4107 28.0956 26.0985 27.5261 26.9285 27.4259L27.4317 27.3651C27.621 27.3422 27.8104 27.3208 28 27.3008Z" fill="#AB56FA"/>
</svg>
