<svg width="64" height="64" viewBox="0 0 64 64" fill="none" xmlns="http://www.w3.org/2000/svg">
<rect width="64" height="64" rx="16" fill="#F1F5FF"/>
<path d="M28 31C27.4477 31 27 31.4477 27 32C27 32.5523 27.4477 33 28 33H36C36.5523 33 37 32.5523 37 32C37 31.4477 36.5523 31 36 31H28Z" fill="#5564FB"/>
<path fill-rule="evenodd" clip-rule="evenodd" d="M21.8 27.7802H22V37.7799C22 39.7597 23.5572 41.4173 25.602 41.6143L27.2238 41.7705C30.4 42.0765 33.6 42.0765 36.7762 41.7705L38.398 41.6143C40.4428 41.4173 42 39.7597 42 37.7799V27.7802H42.2C42.6418 27.7802 43 27.4351 43 27.0095V24.6974C43 23.2077 41.7464 22 40.2 22H23.8C22.2536 22 21 23.2077 21 24.6974V27.0095C21 27.4351 21.3582 27.7802 21.8 27.7802ZM41 25.8535V24.6974C41 24.2718 40.6418 23.9267 40.2 23.9267H23.8C23.3582 23.9267 23 24.2718 23 24.6974V25.8535H41ZM24 27.7802H40V37.7799C40 38.7698 39.2214 39.5986 38.199 39.6971L36.5772 39.8533C33.5333 40.1466 30.4667 40.1466 27.4228 39.8533L25.801 39.6971C24.7786 39.5986 24 38.7698 24 37.7799V27.7802Z" fill="#5564FB"/>
</svg>
