<svg width="64" height="64" viewBox="0 0 64 64" fill="none" xmlns="http://www.w3.org/2000/svg">
<rect width="64" height="64" rx="16" fill="#FFF0F3"/>
<path fill-rule="evenodd" clip-rule="evenodd" d="M22 24C22 22.8954 22.8954 22 24 22H28C29.1046 22 30 22.8954 30 24V28C30 29.1046 29.1046 30 28 30H24C22.8954 30 22 29.1046 22 28V24ZM24 24H28V28H24V24Z" fill="#F0255D"/>
<path fill-rule="evenodd" clip-rule="evenodd" d="M34 36C34 34.8954 34.8954 34 36 34H40C41.1046 34 42 34.8954 42 36V40C42 41.1046 41.1046 42 40 42H36C34.8954 42 34 41.1046 34 40V36ZM36 36H40V40H36V36Z" fill="#F0255D"/>
<path fill-rule="evenodd" clip-rule="evenodd" d="M37.5 22C35.0147 22 33 24.0147 33 26.5C33 28.9853 35.0147 31 37.5 31C39.9853 31 42 28.9853 42 26.5C42 24.0147 39.9853 22 37.5 22ZM35 26.5C35 27.8807 36.1193 29 37.5 29C38.8807 29 40 27.8807 40 26.5C40 25.1193 38.8807 24 37.5 24C36.1193 24 35 25.1193 35 26.5Z" fill="#F0255D"/>
<path d="M26.5 33C27.1213 33 27.625 33.5037 27.625 34.125V36.375H29.875C30.4963 36.375 31 36.8787 31 37.5C31 38.1213 30.4963 38.625 29.875 38.625H27.625V40.875C27.625 41.4963 27.1213 42 26.5 42C25.8787 42 25.375 41.4963 25.375 40.875V38.625H23.125C22.5037 38.625 22 38.1213 22 37.5C22 36.8787 22.5037 36.375 23.125 36.375H25.375V34.125C25.375 33.5037 25.8787 33 26.5 33Z" fill="#F0255D"/>
</svg>
