<svg width="64" height="64" viewBox="0 0 64 64" fill="none" xmlns="http://www.w3.org/2000/svg">
<rect width="64" height="64" rx="16" fill="#E6FDF7"/>
<path fill-rule="evenodd" clip-rule="evenodd" d="M35 23C35 24.6569 33.6569 26 32 26C30.3431 26 29 24.6569 29 23C29 21.3431 30.3431 20 32 20C33.6569 20 35 21.3431 35 23ZM32 24C32.5523 24 33 23.5523 33 23C33 22.4477 32.5523 22 32 22C31.4477 22 31 22.4477 31 23C31 23.5523 31.4477 24 32 24Z" fill="#09A192"/>
<path fill-rule="evenodd" clip-rule="evenodd" d="M28 38C28 39.6569 26.6569 41 25 41C23.3431 41 22 39.6569 22 38C22 36.3431 23.3431 35 25 35C26.6569 35 28 36.3431 28 38ZM26 38C26 38.5523 25.5523 39 25 39C24.4477 39 24 38.5523 24 38C24 37.4477 24.4477 37 25 37C25.5523 37 26 37.4477 26 38Z" fill="#09A192"/>
<path fill-rule="evenodd" clip-rule="evenodd" d="M42 38C42 39.6569 40.6569 41 39 41C37.3431 41 36 39.6569 36 38C36 36.3431 37.3431 35 39 35C40.6569 35 42 36.3431 42 38ZM39 39C39.5523 39 40 38.5523 40 38C40 37.4477 39.5523 37 39 37C38.4477 37 38 37.4477 38 38C38 38.5523 38.4477 39 39 39Z" fill="#09A192"/>
<path d="M39.8477 33.5635L41.8097 33.9516C41.9345 33.3204 42 32.6679 42 32C42 31.3321 41.9345 30.6796 41.8097 30.0484L39.8477 30.4365C39.9474 30.9406 40 31.4632 40 32C40 32.5368 39.9474 33.0594 39.8477 33.5635Z" fill="#09A192"/>
<path d="M40.3157 26.4438L38.6537 27.5565C38.0691 26.6832 37.3168 25.9309 36.4435 25.3463L37.5562 23.6843C38.6467 24.4144 39.5856 25.3533 40.3157 26.4438Z" fill="#09A192"/>
<path d="M27.5565 25.3463L26.4438 23.6843C25.3533 24.4144 24.4144 25.3533 23.6843 26.4438L25.3463 27.5565C25.9309 26.6832 26.6832 25.9309 27.5565 25.3463Z" fill="#09A192"/>
<path d="M22.1903 30.0484C22.0655 30.6796 22 31.3321 22 32C22 32.6679 22.0655 33.3204 22.1903 33.9516L24.1523 33.5635C24.0526 33.0594 24 32.5368 24 32C24 31.4632 24.0526 30.9406 24.1523 30.4365L22.1903 30.0484Z" fill="#09A192"/>
<path d="M30.4365 39.8477L30.0484 41.8097C30.6796 41.9345 31.3321 42 32 42C32.6679 42 33.3204 41.9345 33.9516 41.8097L33.5635 39.8477C33.0594 39.9474 32.5368 40 32 40C31.4632 40 30.9406 39.9474 30.4365 39.8477Z" fill="#09A192"/>
</svg>
