<svg width="64" height="64" viewBox="0 0 64 64" fill="none" xmlns="http://www.w3.org/2000/svg">
<rect width="64" height="64" rx="16" fill="#FFF8F0"/>
<path fill-rule="evenodd" clip-rule="evenodd" d="M32 44C38.6274 44 44 38.6274 44 32C44 25.3726 38.6274 20 32 20C25.3726 20 20 25.3726 20 32C20 38.6274 25.3726 44 32 44ZM32 42C37.5228 42 42 37.5228 42 32C42 30.9548 41.8396 29.947 41.5422 29H36.0004C36.6281 29.8357 37 30.8744 37 32C37 33.2037 36.4705 34.5339 35.848 35.53L31.8054 41.9981C31.8701 41.9994 31.935 42 32 42ZM29.6233 41.7159L32.5925 36.9653C32.3982 36.9882 32.2005 37 32 37C29.6216 37 28.0934 35.423 27.1056 33.4472L23.6385 26.513C22.6026 28.0883 22 29.9738 22 32C22 36.7039 25.2478 40.6492 29.6233 41.7159ZM32 27C30.0317 27 28.3291 28.1373 27.5134 29.7907L25.0318 24.8275C26.8327 23.0776 29.2905 22 32 22C35.7014 22 38.9331 24.011 40.6622 27H32ZM32 29C30.3431 29 29 30.3431 29 32C29 33.6569 30.3431 35 32 35C33.6569 35 35 33.6569 35 32C35 30.3431 33.6569 29 32 29Z" fill="#FB6834"/>
</svg>
