<svg width="32" height="32" viewBox="0 0 32 32" fill="none" xmlns="http://www.w3.org/2000/svg">
<path d="M0 16C0 7.16344 7.16344 0 16 0V0C24.8366 0 32 7.16344 32 16V31.3725C32 31.7191 31.7191 32 31.3725 32H16C7.16344 32 0 24.8366 0 16V16Z" fill="#F0255D"/>
<g opacity="0.9">
<path d="M18 13C18.5523 13 19 12.5523 19 12C19 11.4477 18.5523 11 18 11C17.4477 11 17 11.4477 17 12C17 12.5523 17.4477 13 18 13Z" fill="white"/>
<path fill-rule="evenodd" clip-rule="evenodd" d="M13 19V21C13 23.2091 14.7909 25 17 25H25V15C25 10.5817 21.4183 7 17 7H13C9.68629 7 7 9.68629 7 13V15H9C9 17.2091 10.7909 19 13 19ZM13 9C10.7909 9 9 10.7909 9 13H13V9ZM11 15H13V17C11.8954 17 11 16.1046 11 15ZM15 9H17C20.3137 9 23 11.6863 23 15V15.1802L22.0194 15.3763C19.6823 15.8437 18 17.8958 18 20.2792V23H17C15.8954 23 15 22.1046 15 21V9ZM22.4117 17.3375L23 17.2198V23H20V20.2792C20 18.8492 21.0094 17.6179 22.4117 17.3375Z" fill="white"/>
</g>
</svg>
