<svg width="1248" height="32" viewBox="0 0 1248 32" fill="none" xmlns="http://www.w3.org/2000/svg">
<path d="M62.6666 125.333C28.0955 125.333 0 97.2376 0 62.6666C0 27.9911 28.0955 0 62.6666 0C97.2376 0 125.333 27.9911 125.333 62.6666C125.333 97.2376 97.2376 125.333 62.6666 125.333Z" fill="#1BA5ED"/>
<path d="M125.333 188H0C0 153.324 28.0955 125.333 62.6666 125.333C97.2376 125.333 125.333 153.324 125.333 188Z" fill="#1BA5ED"/>
<path d="M188 125.333V188H125.333C125.333 153.324 153.429 125.333 188 125.333Z" fill="#1BA5ED"/>
<path d="M188 125.333V0C153.429 0 125.333 27.9911 125.333 62.6666C125.333 97.2376 153.429 125.333 188 125.333Z" fill="#1BA5ED"/>
<path d="M1060 0V62.6667H1122.67C1122.67 27.9911 1094.57 0 1060 0Z" fill="#F0255D"/>
<path d="M1185.33 62.6667H1122.67V0C1157.24 0 1185.33 27.9911 1185.33 62.6667Z" fill="#F0255D"/>
<path d="M1248 0H1185.33V62.6667C1219.9 62.6667 1248 34.5711 1248 0Z" fill="#F0255D"/>
<path d="M942 0C942 51.9089 984.091 94 1036 94V0H942Z" fill="#FB6834"/>
<path d="M848 94C899.909 94 942 51.9089 942 0H848V94Z" fill="#FB6834"/>
<path fill-rule="evenodd" clip-rule="evenodd" d="M698.667 0C664.096 0 636 28.0931 636 62.6611L636 187.983H690.683V188H761.35V187.983C795.903 187.975 823.982 159.903 824 125.355V0.0326271H769.317V0.0163498H698.667V0ZM761.333 62.6775L698.667 62.6775L698.667 125.339H761.333L761.333 125.322L761.333 62.6775Z" fill="#1BA5ED"/>
<path d="M424 94.0002C475.813 94.0002 517.845 52.0637 518 0.286416V94.0002C466.091 94.0001 424 136.091 424 188H612V94.0001C560.186 94.0001 518.154 135.937 518 187.714L518 94.0002C569.909 94.0002 612 51.909 612 0H424V94.0002Z" fill="#F5B53E"/>
<path fill-rule="evenodd" clip-rule="evenodd" d="M306 47C306 21.0978 285.007 0 259 0H212V47C212 72.9022 233.098 94 259 94C233.098 94 212 115.098 212 141V188H259C285.007 188 306 166.902 306 141C306 166.902 326.993 188 353 188H400V141C400 115.098 378.902 94 353 94C378.902 94 400 72.9022 400 47V0H353C326.993 0 306 21.0978 306 47ZM306 47H353V94V141H306H259V94V47H306Z" fill="#181B34"/>
</svg>
