<svg width="1248" height="612" viewBox="0 0 1248 612" fill="none" xmlns="http://www.w3.org/2000/svg">
<g opacity="0.9">
<path d="M62.6666 125.333C28.0955 125.333 0 97.2376 0 62.6666C0 27.9911 28.0955 0 62.6666 0C97.2376 0 125.333 27.9911 125.333 62.6666C125.333 97.2376 97.2376 125.333 62.6666 125.333Z" fill="#1BA5ED"/>
<path d="M125.333 188H0C0 153.324 28.0955 125.333 62.6666 125.333C97.2376 125.333 125.333 153.324 125.333 188Z" fill="#1BA5ED"/>
<path d="M188 125.333V188H125.333C125.333 153.324 153.429 125.333 188 125.333Z" fill="#1BA5ED"/>
<path d="M188 125.333V0C153.429 0 125.333 27.9911 125.333 62.6666C125.333 97.2376 153.429 125.333 188 125.333Z" fill="#1BA5ED"/>
<path d="M1122.67 125.333H1185.33V188C1150.76 188 1122.67 159.904 1122.67 125.333Z" fill="#F0255D"/>
<path d="M1060 188H1122.67V125.333C1088.1 125.333 1060 153.324 1060 188Z" fill="#F0255D"/>
<path d="M1122.67 62.6667V125.333H1060C1060 90.6578 1088.1 62.6667 1122.67 62.6667Z" fill="#F0255D"/>
<path d="M1060 0V62.6667H1122.67C1122.67 27.9911 1094.57 0 1060 0Z" fill="#F0255D"/>
<path d="M1185.33 62.6667H1122.67V0C1157.24 0 1185.33 27.9911 1185.33 62.6667Z" fill="#F0255D"/>
<path d="M1248 0H1185.33V62.6667C1219.9 62.6667 1248 34.5711 1248 0Z" fill="#F0255D"/>
<path d="M1185.33 125.333V62.6667H1248C1248 97.2378 1219.9 125.333 1185.33 125.333Z" fill="#F0255D"/>
<path d="M1248 188V125.333H1185.33C1185.33 159.904 1213.43 188 1248 188Z" fill="#F0255D"/>
<path d="M942 188C942 136.091 984.091 94 1036 94V188H942Z" fill="#FB6834"/>
<path d="M848 94C899.909 94 942 136.091 942 188H848V94Z" fill="#FB6834"/>
<path d="M942 0C942 51.9089 984.091 94 1036 94V0H942Z" fill="#FB6834"/>
<path d="M848 94C899.909 94 942 51.9089 942 0H848V94Z" fill="#FB6834"/>
<path d="M942 518H848V424C899.909 424.104 942 466.196 942 518Z" fill="#32AEEF"/>
<path d="M942 424V518H1036C1036 466.196 993.909 424 942 424Z" fill="#32AEEF"/>
<path d="M848 518V612H942C942 560.196 899.909 518 848 518Z" fill="#32AEEF"/>
<path d="M942 518V612H1036C1036 560.196 993.909 518 942 518Z" fill="#32AEEF"/>
<path d="M612 212C612 263.909 569.909 306 518 306H612C612 357.909 569.909 400 518 400H424C424 348.117 466.05 306.041 517.923 306H424C424 254.091 466.091 212 518 212H612Z" fill="#09A192"/>
<path d="M0 212C51.9089 212 94 254.091 94 306H0V212Z" fill="#FF6D63"/>
<path d="M188 212C188 263.909 145.909 306 94.0001 306V212H188Z" fill="#FF6D63"/>
<path d="M188 400C136.091 400 94.0001 357.909 94.0001 306H188V400Z" fill="#FF6D63"/>
<path d="M0 400C0 348.091 42.0911 306 94 306V400H0Z" fill="#FF6D63"/>
<path fill-rule="evenodd" clip-rule="evenodd" d="M636 306C636 254.196 678.091 212 730 212C781.909 212 824 254.196 824 306V400H636L636 306ZM730 399.857C730.077 348.136 772.109 306.029 823.946 306L636.077 306C687.903 306.041 729.923 348.144 730 399.857Z" fill="#AB56FA"/>
<path d="M259 306C232.994 306 212 326.993 212 353C212 379.007 232.994 400 259 400C285.007 400 306 379.007 306 353H259V306Z" fill="#F13B6D"/>
<path d="M353 306V353H306C306 379.007 326.993 400 353 400C379.007 400 400 379.007 400 353C400 327.098 379.007 306 353 306Z" fill="#F13B6D"/>
<path d="M306 259C306 232.993 285.007 212 259 212C232.993 212 212 232.993 212 259C212 285.007 232.993 306 259 306V259H306Z" fill="#F13B6D"/>
<path d="M306 353C331.957 353 353 331.957 353 306C353 280.043 331.957 259 306 259C280.043 259 259 280.043 259 306C259 331.957 280.043 353 306 353Z" fill="#F13B6D"/>
<path d="M353 212C326.993 212 306 232.993 306 259H353V306C379.007 306 400 285.007 400 259C400 233.098 379.007 212 353 212Z" fill="#F13B6D"/>
<path fill-rule="evenodd" clip-rule="evenodd" d="M698.667 0C664.096 0 636 28.0931 636 62.6611L636 187.983H690.683V188H761.35V187.983C795.903 187.975 823.982 159.903 824 125.355V0.0326271H769.317V0.0163498H698.667V0ZM761.333 62.6775L698.667 62.6775L698.667 125.339H761.333L761.333 125.322L761.333 62.6775Z" fill="#1BA5ED"/>
<path fill-rule="evenodd" clip-rule="evenodd" d="M1122.67 212C1088.1 212 1060 240.093 1060 274.661L1060 399.983H1114.68V400H1185.35V399.983C1219.9 399.975 1247.98 371.903 1248 337.355V212.033H1193.32V212.016H1122.67V212ZM1185.33 274.677L1122.67 274.677L1122.67 337.339H1185.33L1185.33 337.322L1185.33 274.677Z" fill="#F5B53E"/>
<path d="M424 94.0002C475.813 94.0002 517.845 52.0637 518 0.286416V94.0002C466.091 94.0001 424 136.091 424 188H612V94.0001C560.186 94.0001 518.154 135.937 518 187.714L518 94.0002C569.909 94.0002 612 51.909 612 0H424V94.0002Z" fill="#F5B53E"/>
<path d="M848 212C899.863 212 941.926 254.017 942 305.863V212H1036C1036 263.909 993.909 306 942 306H848V212Z" fill="#181B34"/>
<path d="M942 306H1036V400C984.091 400 942 357.909 942 306Z" fill="#181B34"/>
<path d="M942 306V400H848C848 348.091 890.091 306 942 306Z" fill="#181B34"/>
<path d="M730 518C781.909 518 824 560.196 824 612H636C636 560.196 678.091 518 730 518Z" fill="#181B34"/>
<path d="M730 518C678.091 518 636 475.909 636 424H824C824 475.909 781.909 518 730 518Z" fill="#181B34"/>
<path d="M424 424C458.571 424 486.667 451.991 486.667 486.667C486.667 521.238 458.571 549.333 424 549.333V424Z" fill="#F5B53E"/>
<path d="M424 612C424 577.324 452.096 549.333 486.667 549.333C521.238 549.333 549.333 577.324 549.333 612H424Z" fill="#F5B53E"/>
<path d="M549.333 486.667C583.904 486.667 612 458.571 612 424H486.667C486.667 458.571 514.762 486.667 549.333 486.667Z" fill="#F5B53E"/>
<path d="M549.333 549.333C549.333 583.904 577.429 612 612 612V486.667C577.429 486.667 549.333 514.658 549.333 549.333Z" fill="#F5B53E"/>
<path d="M1154 471V424L1201 471H1154Z" fill="#B367FA"/>
<path d="M1154 565V518L1201 565H1154Z" fill="#B367FA"/>
<path d="M1107 518V565L1154 518H1107Z" fill="#B367FA"/>
<path fill-rule="evenodd" clip-rule="evenodd" d="M1154 518V471H1107L1154 424H1107V471L1060 424V471H1107L1060 518V565H1107L1060 612H1107V565L1154 612H1201V565L1248 612V565H1201L1248 518V471H1201L1248 424H1201V471L1154 518ZM1201 518V471L1248 518H1201ZM1201 518H1154L1107 471V518H1060L1107 565H1154V612L1201 565V518Z" fill="#B367FA"/>
<path d="M353 518V565H306L353 518Z" fill="#FB7748"/>
<path d="M306 565H259V518L306 565Z" fill="#FB7748"/>
<path d="M353 518V471H306H259V518L306 471L353 518Z" fill="#FB7748"/>
<path fill-rule="evenodd" clip-rule="evenodd" d="M400 424H353H259H212V471V565V612H259H353H400V565V471V424ZM353 518L400 471L353 424L306 471L259 424L212 471L259 518L212 565L259 612L306 565L353 612L400 565L353 518Z" fill="#FB7748"/>
<path fill-rule="evenodd" clip-rule="evenodd" d="M62.6667 486.667L0 549.333H62.6667L0 612H62.6667H125.333H188V549.333V486.667V424L125.333 486.667V424L62.6667 486.667ZM62.6667 486.667H125.333L62.6667 549.333V486.667ZM125.333 549.333V612L188 549.333H125.333ZM125.333 549.333L188 486.667H125.333V549.333ZM125.333 549.333L62.6667 612V549.333H125.333Z" fill="#32AEEF"/>
<path d="M62.6667 486.667H0L62.6667 424V486.667Z" fill="#32AEEF"/>
<path fill-rule="evenodd" clip-rule="evenodd" d="M306 47C306 21.0978 285.007 0 259 0H212V47C212 72.9022 233.098 94 259 94C233.098 94 212 115.098 212 141V188H259C285.007 188 306 166.902 306 141C306 166.902 326.993 188 353 188H400V141C400 115.098 378.902 94 353 94C378.902 94 400 72.9022 400 47V0H353C326.993 0 306 21.0978 306 47ZM306 47H353V94V141H306H259V94V47H306Z" fill="#181B34"/>
</g>
</svg>
